<svg width="51" height="50" viewBox="0 0 51 50" fill="none" xmlns="http://www.w3.org/2000/svg">
<path d="M25.5 3.07031C12.9152 3.07031 2.57031 11.9254 2.57031 23C2.57031 29.4273 6.12196 35.0866 11.5 38.7129C11.4916 38.9285 11.5081 39.2807 11.2266 40.3242C10.8778 41.617 10.1732 43.4317 8.74023 45.4648C8.64239 45.6038 8.5845 45.7669 8.57285 45.9364C8.5612 46.1059 8.59624 46.2754 8.67416 46.4264C8.75208 46.5774 8.86989 46.7041 9.0148 46.7929C9.15971 46.8816 9.32617 46.9289 9.49609 46.9297C15.6734 46.9566 19.2488 42.9048 19.8047 42.252C21.6335 42.6591 23.5284 42.9297 25.5 42.9297C38.0839 42.9297 48.4297 34.0747 48.4297 23C48.4297 11.9253 38.0839 3.07031 25.5 3.07031ZM25.5 4.92969C37.2161 4.92969 46.5703 13.0887 46.5703 23C46.5703 32.9113 37.2161 41.0703 25.5 41.0703C23.498 41.0703 21.5635 40.8312 19.7305 40.3848C19.5588 40.3427 19.3786 40.3506 19.2112 40.4073C19.0437 40.464 18.896 40.5673 18.7852 40.7051C18.7852 40.7051 15.8949 43.9848 11.2871 44.7598C12.1201 43.2649 12.7352 41.8699 13.0215 40.8086C13.4205 39.3294 13.4258 38.3262 13.4258 38.3262C13.4258 38.1695 13.3863 38.0154 13.3108 37.8782C13.2353 37.7409 13.1264 37.6249 12.9941 37.541C7.7672 34.2276 4.42969 28.9433 4.42969 23C4.42969 13.0886 13.7828 4.92969 25.5 4.92969ZM14.5 16C14.3675 15.9981 14.2359 16.0226 14.113 16.072C13.99 16.1214 13.8781 16.1948 13.7837 16.2878C13.6893 16.3809 13.6144 16.4918 13.5632 16.614C13.5121 16.7363 13.4858 16.8675 13.4858 17C13.4858 17.1325 13.5121 17.2637 13.5632 17.386C13.6144 17.5082 13.6893 17.6191 13.7837 17.7122C13.8781 17.8052 13.99 17.8786 14.113 17.928C14.2359 17.9774 14.3675 18.0019 14.5 18H36.5C36.6325 18.0019 36.7641 17.9774 36.887 17.928C37.01 17.8786 37.1219 17.8052 37.2163 17.7122C37.3107 17.6191 37.3856 17.5082 37.4368 17.386C37.4879 17.2637 37.5142 17.1325 37.5142 17C37.5142 16.8675 37.4879 16.7363 37.4368 16.614C37.3856 16.4918 37.3107 16.3809 37.2163 16.2878C37.1219 16.1948 37.01 16.1214 36.887 16.072C36.7641 16.0226 36.6325 15.9981 36.5 16H14.5ZM10.5 22C10.3675 21.9981 10.2359 22.0226 10.113 22.072C9.98999 22.1214 9.87807 22.1948 9.7837 22.2878C9.68933 22.3809 9.61439 22.4918 9.56324 22.614C9.5121 22.7363 9.48576 22.8675 9.48576 23C9.48576 23.1325 9.5121 23.2637 9.56324 23.386C9.61439 23.5082 9.68933 23.6191 9.7837 23.7122C9.87807 23.8052 9.98999 23.8786 10.113 23.928C10.2359 23.9774 10.3675 24.0019 10.5 24H27.5C27.6325 24.0019 27.7641 23.9774 27.887 23.928C28.01 23.8786 28.1219 23.8052 28.2163 23.7122C28.3107 23.6191 28.3856 23.5082 28.4368 23.386C28.4879 23.2637 28.5142 23.1325 28.5142 23C28.5142 22.8675 28.4879 22.7363 28.4368 22.614C28.3856 22.4918 28.3107 22.3809 28.2163 22.2878C28.1219 22.1948 28.01 22.1214 27.887 22.072C27.7641 22.0226 27.6325 21.9981 27.5 22H10.5ZM33.5 22C33.3675 21.9981 33.2359 22.0226 33.113 22.072C32.99 22.1214 32.8781 22.1948 32.7837 22.2878C32.6893 22.3809 32.6144 22.4918 32.5632 22.614C32.5121 22.7363 32.4858 22.8675 32.4858 23C32.4858 23.1325 32.5121 23.2637 32.5632 23.386C32.6144 23.5082 32.6893 23.6191 32.7837 23.7122C32.8781 23.8052 32.99 23.8786 33.113 23.928C33.2359 23.9774 33.3675 24.0019 33.5 24H40.5C40.6325 24.0019 40.7641 23.9774 40.887 23.928C41.01 23.8786 41.1219 23.8052 41.2163 23.7122C41.3107 23.6191 41.3856 23.5082 41.4368 23.386C41.4879 23.2637 41.5142 23.1325 41.5142 23C41.5142 22.8675 41.4879 22.7363 41.4368 22.614C41.3856 22.4918 41.3107 22.3809 41.2163 22.2878C41.1219 22.1948 41.01 22.1214 40.887 22.072C40.7641 22.0226 40.6325 21.9981 40.5 22H33.5ZM14.5 28C14.3675 27.9981 14.2359 28.0226 14.113 28.072C13.99 28.1214 13.8781 28.1948 13.7837 28.2878C13.6893 28.3809 13.6144 28.4918 13.5632 28.614C13.5121 28.7363 13.4858 28.8675 13.4858 29C13.4858 29.1325 13.5121 29.2637 13.5632 29.386C13.6144 29.5082 13.6893 29.6191 13.7837 29.7122C13.8781 29.8052 13.99 29.8786 14.113 29.928C14.2359 29.9774 14.3675 30.0019 14.5 30H36.5C36.6325 30.0019 36.7641 29.9774 36.887 29.928C37.01 29.8786 37.1219 29.8052 37.2163 29.7122C37.3107 29.6191 37.3856 29.5082 37.4368 29.386C37.4879 29.2637 37.5142 29.1325 37.5142 29C37.5142 28.8675 37.4879 28.7363 37.4368 28.614C37.3856 28.4918 37.3107 28.3809 37.2163 28.2878C37.1219 28.1948 37.01 28.1214 36.887 28.072C36.7641 28.0226 36.6325 27.9981 36.5 28H14.5Z" fill="#DD8560"/>
</svg>
