<svg width="48" height="49" viewBox="0 0 48 49" fill="none" xmlns="http://www.w3.org/2000/svg">
<path d="M35 0.712158C28.885 0.712158 23.756 4.45488 22.377 9.47388C20.49 8.55988 18.2015 8.77231 16.5645 10.1223L11.6719 13.7122H8C7.447 13.7122 7 14.1602 7 14.7122V18.011C6.986 18.022 6.96713 18.0234 6.95312 18.0344L0.363281 23.4602C0.133281 23.6502 0 23.9346 0 24.2336V47.7004C0 48.2524 0.447 48.7004 1 48.7004H38.9961C39.5491 48.7004 39.9961 48.2524 39.9961 47.7004V24.2336C39.9961 23.9216 39.8496 23.6277 39.6016 23.4387L39.0703 23.0325C44.2493 21.5235 48 17.2253 48 12.1633C48 5.84933 42.168 0.712158 35 0.712158ZM35 2.71216C41.065 2.71216 46 6.95233 46 12.1633C46 17.3753 41.065 21.6145 35 21.6145C34.072 21.6145 33.1711 21.5083 32.2441 21.2903C31.8801 21.2033 31.4989 21.3305 31.2559 21.6145C30.8899 22.0425 29.6495 23.311 27.6055 23.636C28.0945 22.769 28.3571 22.0184 28.4961 21.4954C28.6431 20.9534 28.6698 20.671 28.6758 20.425C28.6888 20.081 28.5213 19.7548 28.2363 19.5618C25.5433 17.7398 24 15.0423 24 12.1633C24 6.95233 28.935 2.71216 35 2.71216ZM35 5.81177C34.4 5.81177 34 6.21177 34 6.81177V10.7122H30.0996C29.4996 10.7122 29.0996 11.1122 29.0996 11.7122C29.0996 12.3122 29.4996 12.7122 30.0996 12.7122H34V16.6125C34 17.2125 34.4 17.6125 35 17.6125C35.6 17.6125 36 17.2125 36 16.6125V12.7122H39.9004C40.5004 12.7122 40.9004 12.3122 40.9004 11.7122C40.9004 11.1122 40.5004 10.7122 39.9004 10.7122H36V6.81177C36 6.21177 35.6 5.81177 35 5.81177ZM19.8945 10.9172C20.6433 10.8985 21.3982 11.1213 22.0332 11.5833C22.0222 11.7763 22 11.9673 22 12.1633C22 12.6873 22.0548 13.2022 22.1348 13.7122H15.0527L17.793 11.7004C18.404 11.1964 19.1458 10.936 19.8945 10.9172ZM22.6328 15.6575C23.3668 17.6485 24.7177 19.4448 26.5957 20.8508C26.5857 20.8898 26.5745 20.9308 26.5625 20.9758C26.4175 21.5198 26.1012 22.3783 25.4082 23.3743L24.873 24.1399C24.66 24.4459 24.6366 24.845 24.8086 25.175C24.9806 25.505 25.3204 25.7122 25.6934 25.7122H26.627C28.488 25.7122 29.9481 25.0999 30.9961 24.4309V30.3254L26.6133 33.7454L24.834 32.3606C22.031 30.1786 17.9651 30.1786 15.1621 32.3606L13.3848 33.7434L9 30.3235V15.7122H22.3633C22.4583 15.7122 22.5458 15.6825 22.6328 15.6575ZM7 20.5872V28.7629L2 24.8625V24.7043L7 20.5872ZM32.9961 23.4524C33.6641 23.5504 34.334 23.6145 35 23.6145C35.486 23.6145 35.9655 23.5863 36.4375 23.5403L37.9961 24.7278V24.8625L32.9961 28.7649V23.4524ZM2 27.3997L11.7559 35.011L2 42.6047V27.3997ZM37.9961 27.3997V42.6047L28.2402 35.0129L37.9961 27.3997ZM19.998 32.7161C21.2793 32.7161 22.5605 33.1233 23.6055 33.9368L37.9961 45.1399V46.7004H2V45.1399L16.3906 33.9368C17.4356 33.1233 18.7168 32.7161 19.998 32.7161Z" fill="#DD8560"/>
</svg>
