<svg width="25" height="25" viewBox="0 0 25 25" fill="none" xmlns="http://www.w3.org/2000/svg">
<path d="M8.49834 3.18359C5.41114 3.18359 2.8999 5.69716 2.8999 8.78516V16.7852C2.8999 19.8724 5.41346 22.3836 8.50146 22.3836H16.5015C19.5887 22.3836 22.0999 19.87 22.0999 16.782V8.78203C22.0999 5.69483 19.5863 3.18359 16.4983 3.18359H8.49834ZM18.0999 6.38359C18.5415 6.38359 18.8999 6.74199 18.8999 7.18359C18.8999 7.62519 18.5415 7.98359 18.0999 7.98359C17.6583 7.98359 17.2999 7.62519 17.2999 7.18359C17.2999 6.74199 17.6583 6.38359 18.0999 6.38359ZM12.4999 7.98359C15.1471 7.98359 17.2999 10.1364 17.2999 12.7836C17.2999 15.4308 15.1471 17.5836 12.4999 17.5836C9.8527 17.5836 7.6999 15.4308 7.6999 12.7836C7.6999 10.1364 9.8527 7.98359 12.4999 7.98359ZM12.4999 9.58359C11.6512 9.58359 10.8373 9.92074 10.2372 10.5209C9.63704 11.121 9.2999 11.9349 9.2999 12.7836C9.2999 13.6323 9.63704 14.4462 10.2372 15.0463C10.8373 15.6465 11.6512 15.9836 12.4999 15.9836C13.3486 15.9836 14.1625 15.6465 14.7626 15.0463C15.3628 14.4462 15.6999 13.6323 15.6999 12.7836C15.6999 11.9349 15.3628 11.121 14.7626 10.5209C14.1625 9.92074 13.3486 9.58359 12.4999 9.58359Z" fill="#333333"/>
</svg>
