<svg width="51" height="51" viewBox="0 0 51 51" fill="none" xmlns="http://www.w3.org/2000/svg">
<g clip-path="url(#clip0_845_2479)">
<path d="M34.7185 5.91223C28.738 5.91223 23.8748 10.7755 23.8748 16.756C23.8748 17.1154 23.9646 17.4669 23.9998 17.8185C16.6052 17.1115 10.0662 13.549 5.62476 8.09973C5.41773 7.83801 5.09741 7.69739 4.76148 7.72083C4.42945 7.74426 4.13257 7.93567 3.96851 8.22473C3.03491 9.8302 2.49976 11.6779 2.49976 13.6622C2.49976 16.0646 3.35913 18.2638 4.68726 20.0685C4.42945 19.9552 4.1482 19.8927 3.90601 19.756C3.59741 19.5919 3.22632 19.5997 2.92554 19.7794C2.62476 19.9591 2.44116 20.2833 2.43726 20.631V20.756C2.43726 24.4396 4.34351 27.6388 7.15601 29.5997C7.12476 29.5958 7.09351 29.6075 7.06226 29.5997C6.71851 29.5411 6.37085 29.6622 6.14038 29.924C5.90991 30.1857 5.8357 30.549 5.93726 30.881C7.05445 34.3536 9.90601 37.006 13.4373 37.9747C10.6248 39.6466 7.36304 40.631 3.84351 40.631C3.08179 40.631 2.35132 40.5919 1.62476 40.506C1.15601 40.4435 0.706789 40.7169 0.550539 41.1622C0.390383 41.6075 0.566164 42.1036 0.968508 42.3497C5.48023 45.2443 10.8357 46.9435 16.5935 46.9435C25.9255 46.9435 33.2459 43.045 38.156 37.4747C43.0662 31.9044 45.6248 24.67 45.6248 17.9122C45.6248 17.6271 45.6013 17.3497 45.5935 17.0685C47.4255 15.6661 49.0623 14.0216 50.3435 12.0997C50.5974 11.7286 50.5701 11.2325 50.2771 10.8888C49.988 10.545 49.4998 10.4396 49.0935 10.631C48.5779 10.8615 47.9763 10.8849 47.4373 11.0685C48.1482 10.1193 48.7576 9.09583 49.1248 7.94348C49.2498 7.54895 49.113 7.11536 48.7888 6.85754C48.4646 6.60364 48.0115 6.57239 47.656 6.78723C45.949 7.79895 44.0584 8.50989 42.0623 8.94348C40.1248 7.13098 37.574 5.91223 34.7185 5.91223ZM34.7185 7.91223C37.2693 7.91223 39.574 9.00208 41.1873 10.7247C41.4294 10.9747 41.7849 11.0802 42.1248 11.006C43.4294 10.7482 44.6677 10.3693 45.8748 9.88098C45.1794 10.8185 44.3201 11.6193 43.3123 12.2247C42.8552 12.4474 42.6404 12.9747 42.8084 13.4552C42.9724 13.9318 43.4724 14.2091 43.9685 14.0997C44.9685 13.9786 45.8591 13.5724 46.8123 13.3185C45.9568 14.2443 45.0193 15.0802 43.9998 15.8185C43.7224 16.0216 43.5701 16.3497 43.5935 16.6935C43.6091 17.0997 43.6248 17.5021 43.6248 17.9122C43.6248 24.1622 41.2263 30.9474 36.656 36.131C32.0857 41.3146 25.3748 44.9435 16.5935 44.9435C12.6052 44.9435 8.8396 44.0607 5.43726 42.506C9.65601 42.1818 13.5466 40.6896 16.6873 38.2247C17.0154 37.963 17.1443 37.5255 17.0115 37.1271C16.8787 36.7286 16.5115 36.4552 16.0935 36.4435C12.7966 36.3849 10.0349 34.4669 8.56226 31.756C8.61695 31.756 8.66382 31.756 8.71851 31.756C9.70679 31.756 10.6834 31.631 11.5935 31.381C12.031 31.2521 12.3318 30.8458 12.3162 30.3888C12.3005 29.9318 11.9763 29.5411 11.531 29.4435C7.97241 28.7247 5.30445 25.8263 4.68726 22.2247C5.69507 22.5724 6.72632 22.8458 7.84351 22.881C8.30054 22.9083 8.7146 22.6232 8.85523 22.1896C8.99585 21.756 8.82398 21.2794 8.43726 21.0372C6.06226 19.4474 4.49976 16.7404 4.49976 13.6622C4.49976 12.5216 4.79663 11.4747 5.18726 10.4747C10.1873 15.963 17.1873 19.6075 25.0935 20.006C25.406 20.0216 25.7107 19.8927 25.9138 19.6544C26.1169 19.4122 26.1951 19.0919 26.1248 18.7872C25.9724 18.1388 25.8748 17.4513 25.8748 16.756C25.8748 11.8575 29.8201 7.91223 34.7185 7.91223Z" fill="#DD8560"/>
</g>
<defs>
<clipPath id="clip0_845_2479">
<rect width="50" height="50" fill="white" transform="translate(0.5 0.443481)"/>
</clipPath>
</defs>
</svg>
