<svg width="21" height="20" viewBox="0 0 21 20" fill="none" xmlns="http://www.w3.org/2000/svg">
<path d="M6.49846 0.183594C3.41126 0.183594 0.900024 2.69716 0.900024 5.78516V13.7852C0.900024 16.8724 3.41359 19.3836 6.50159 19.3836H14.5016C17.5888 19.3836 20.1 16.87 20.1 13.782V5.78203C20.1 2.69483 17.5865 0.183594 14.4985 0.183594H6.49846ZM16.1 3.38359C16.5416 3.38359 16.9 3.74199 16.9 4.18359C16.9 4.62519 16.5416 4.98359 16.1 4.98359C15.6584 4.98359 15.3 4.62519 15.3 4.18359C15.3 3.74199 15.6584 3.38359 16.1 3.38359ZM10.5 4.98359C13.1472 4.98359 15.3 7.13639 15.3 9.78359C15.3 12.4308 13.1472 14.5836 10.5 14.5836C7.85282 14.5836 5.70002 12.4308 5.70002 9.78359C5.70002 7.13639 7.85282 4.98359 10.5 4.98359ZM10.5 6.58359C9.65133 6.58359 8.8374 6.92074 8.23728 7.52085C7.63717 8.12097 7.30002 8.9349 7.30002 9.78359C7.30002 10.6323 7.63717 11.4462 8.23728 12.0463C8.8374 12.6465 9.65133 12.9836 10.5 12.9836C11.3487 12.9836 12.1626 12.6465 12.7628 12.0463C13.3629 11.4462 13.7 10.6323 13.7 9.78359C13.7 8.9349 13.3629 8.12097 12.7628 7.52085C12.1626 6.92074 11.3487 6.58359 10.5 6.58359Z" fill="#333333"/>
</svg>
