<svg width="25" height="25" viewBox="0 0 25 25" fill="none" xmlns="http://www.w3.org/2000/svg">
<path d="M12.5001 3.98364C9.1513 3.98364 4.80479 4.82271 4.80479 4.82271L4.79385 4.83521C3.26863 5.07913 2.1001 6.38974 2.1001 7.98364V12.7836V12.7852V17.5836V17.5852C2.10159 18.3464 2.37439 19.0822 2.86954 19.6604C3.36468 20.2386 4.04972 20.6213 4.80166 20.7399L4.80479 20.7446C4.80479 20.7446 9.1513 21.5852 12.5001 21.5852C15.8489 21.5852 20.1954 20.7446 20.1954 20.7446L20.197 20.743C20.9497 20.6247 21.6356 20.2417 22.1311 19.6628C22.6266 19.0839 22.8993 18.3472 22.9001 17.5852V17.5836V12.7852V12.7836V7.98364C22.899 7.22215 22.6263 6.48601 22.1312 5.90749C21.636 5.32897 20.9507 4.946 20.1985 4.82739L20.1954 4.82271C20.1954 4.82271 15.8489 3.98364 12.5001 3.98364ZM10.1001 9.10239L16.5001 12.7836L10.1001 16.4649V9.10239Z" fill="#333333"/>
</svg>
